<svg width="561" height="580" viewBox="0 0 561 580" fill="none" xmlns="http://www.w3.org/2000/svg">
<rect x="43" y="174" width="381" height="390" rx="54" stroke="#FFF114" stroke-width="32"/>
<path d="M560.557 1L242.557 405.5C242.557 405.5 31.0554 219 7.55598 198C-15.9434 177 29.0562 121 58.5563 146L242.557 288.5L560.557 1Z" fill="#EC3237" stroke="#E52029"/>
<path d="M76.4981 516.5C76.4963 501.5 76.4981 299 76.4981 299C107.102 325.801 141.498 354.5 141.498 360.5V525C141.498 535 76.5 531.5 76.4981 516.5Z" fill="#E52029" stroke="#E52029"/>
<path d="M385.5 515.5C385.502 500.5 384 275 384 275C355 310 319 356.5 319 362.5V525.5C319 535.5 385.498 530.5 385.5 515.5Z" fill="#E52029" stroke="#E52029"/>
</svg>
