<svg width="240" height="170" viewBox="0 0 240 170" fill="none" xmlns="http://www.w3.org/2000/svg">
<path fill-rule="evenodd" clip-rule="evenodd" d="M55.4509 100.009L62.1896 100.006H62.2067C64.0645 100.037 66.6802 100.109 67.7999 98.3233C68.0877 97.8641 68.2302 97.3422 68.2302 96.8003V76.9275C68.2302 76.3856 68.0877 75.8637 67.7999 75.4045C66.6802 73.6191 64.0645 73.6876 62.2067 73.7218H62.1896L55.4509 73.7189V71.8423L62.1754 71.8452C64.8025 71.7995 67.8113 71.8908 69.387 74.4091C69.8629 75.1678 70.1022 76.0348 70.1022 76.9303V96.8032C70.1022 97.6959 69.86 98.5657 69.387 99.3244C67.8085 101.843 64.7996 101.934 62.1754 101.888L55.4509 101.891V100.009ZM47.4614 100.012L55.4481 100.009V101.885L47.4443 101.888C45.1848 101.851 42.817 101.406 41.5091 99.3187C41.0333 98.56 40.7939 97.693 40.7939 96.7975V76.9246C40.7939 76.0319 41.0361 75.1621 41.5091 74.4034C42.817 72.3157 45.1819 71.8708 47.4443 71.8337L55.4481 71.8366V73.7132L47.4614 73.7104C45.8971 73.736 44.0108 73.9471 43.0991 75.4016C42.8113 75.8608 42.6688 76.3827 42.6688 76.9246V96.7975C42.6688 97.3394 42.8113 97.8613 43.0991 98.3205C44.0108 99.775 45.8971 99.9832 47.4614 100.012Z" fill="#FFF200"/>
<path fill-rule="evenodd" clip-rule="evenodd" d="M44.5607 81.9045L48.6609 85.538C48.8917 85.7434 49.2222 85.9573 49.2222 86.6646V97.7675C49.2222 98.0755 48.9687 98.3236 48.6609 98.3293C46.9228 98.3607 44.5607 98.3949 44.5607 97.0146V81.9045Z" fill="#ED1C24"/>
<path fill-rule="evenodd" clip-rule="evenodd" d="M66.3411 80.1338L62.2523 85.3558C62.0557 85.6068 61.691 85.9548 61.691 86.8218L61.6796 97.7678C61.6796 98.0759 61.9332 98.324 62.2409 98.3297C63.979 98.3611 66.3411 98.3953 66.3411 97.0149V80.1338Z" fill="#ED1C24"/>
<path fill-rule="evenodd" clip-rule="evenodd" d="M56.3741 80.9893L43.0876 70.8076C42.911 70.6735 42.4067 70.3626 41.9707 70.4453C40.2896 70.7619 38.6398 72.6785 39.3379 74.2842C39.4148 74.4581 39.5915 74.6064 39.7311 74.7291L56.3741 89.4769L78.9579 60.6116L56.3741 80.9893Z" fill="#ED1C24"/>
<path fill-rule="evenodd" clip-rule="evenodd" d="M84.0696 95.643C84.0696 95.0156 83.5425 94.4851 82.9128 94.4851H77.4107V91.2909H81.907C82.5338 91.2909 83.0638 90.7632 83.0638 90.1329V88.6756C83.0638 88.0481 82.5367 87.5176 81.907 87.5176H77.4107V84.426H82.6621C83.2889 84.426 83.8189 83.8984 83.8189 83.2681V81.8107C83.8189 81.1833 83.2918 80.6528 82.6621 80.6528H74.5471C73.9203 80.6528 73.3903 81.1804 73.3903 81.8107V97.1004C73.3903 97.7279 73.9174 98.2583 74.5471 98.2583H82.9156C83.5425 98.2583 84.0725 97.7307 84.0725 97.1004V95.643H84.0696ZM90.8539 89.457C90.8539 85.9604 92.9396 84.1266 95.9799 84.1266C96.8347 84.1266 97.6895 84.3291 98.5158 84.7312C98.7181 84.831 98.9175 84.8824 99.1198 84.8824C99.5729 84.8824 99.9233 84.657 100.174 84.2292L100.852 83.0228C100.952 82.846 101.003 82.672 101.003 82.4696C101.003 82.0161 100.778 81.6653 100.299 81.3886C99.0429 80.7099 97.4359 80.3591 95.5012 80.3591C92.8142 80.3591 90.6516 81.2147 89.0189 82.9487C87.3863 84.6827 86.5827 86.8702 86.5827 89.4627C86.5827 92.2548 87.4119 94.468 89.0702 96.1022C90.7285 97.7364 93.0393 98.5664 96.0026 98.5664C97.9858 98.5664 100.322 97.8362 101.906 96.6555C102.36 96.3275 102.585 95.9026 102.585 95.3236V89.3828C102.585 88.7554 102.057 88.2249 101.428 88.2249H96.2277C95.6009 88.2249 95.0709 88.7526 95.0709 89.3828V90.8402C95.0709 91.4677 95.598 91.9982 96.2277 91.9982H98.8149V93.909C98.3875 94.3111 97.0569 94.7903 96.0511 94.7903C92.914 94.7874 90.8539 92.7026 90.8539 89.457ZM117.381 97.4284C117.606 97.9817 118.008 98.2583 118.586 98.2583H120.37C120.974 98.2583 121.45 97.7564 121.45 97.1774C121.45 97.0263 121.424 96.8751 121.376 96.7496L115.045 81.4856C114.794 80.9323 114.392 80.6557 113.814 80.6557H111.979C111.4 80.6557 110.999 80.9323 110.748 81.4856L104.417 96.7496C104.365 96.8751 104.343 97.0263 104.343 97.1774C104.343 97.7564 104.821 98.2583 105.423 98.2583H106.955C107.534 98.2583 107.936 97.9817 108.161 97.4284L109.292 94.5621H116.25L117.381 97.4284ZM114.743 90.7889H110.799L112.785 85.8093L114.743 90.7889ZM123.285 94.9386C123.16 95.1154 123.083 95.3664 123.083 95.6687C123.083 96.0452 123.208 96.3475 123.459 96.55C125.191 97.8819 126.952 98.5607 128.784 98.5607C130.517 98.5607 131.95 98.0815 133.104 97.1033C134.235 96.1222 134.813 94.8901 134.813 93.3814C134.813 87.6488 127.479 88.3533 127.479 85.4357C127.479 84.6314 128.132 84.1294 129.237 84.1294C129.915 84.1294 130.594 84.2806 131.22 84.6086C131.446 84.7341 131.673 84.8111 131.899 84.8111C132.326 84.8111 132.654 84.6086 132.904 84.2064L133.557 83.0998C133.657 82.923 133.708 82.7234 133.708 82.4952C133.708 82.0417 133.557 81.7166 133.229 81.5141C132.024 80.7355 130.565 80.3562 128.884 80.3562C127.177 80.3562 125.795 80.8582 124.764 81.8393C123.735 82.8204 123.205 84.0268 123.205 85.4357C123.205 87.549 124.362 89.1319 125.792 89.9618C127.904 91.1939 130.539 91.9982 130.539 93.4327C130.539 94.2627 129.913 94.7903 128.881 94.7903C127.952 94.7903 126.898 94.3881 125.716 93.6095C125.49 93.4327 125.214 93.3586 124.938 93.3586C124.536 93.3586 124.234 93.5354 124.009 93.8862L123.285 94.9386ZM144.336 98.2583C144.963 98.2583 145.493 97.7307 145.493 97.1004V84.426H149.613C150.24 84.426 150.77 83.8984 150.77 83.2681V81.8107C150.77 81.1833 150.243 80.6528 149.613 80.6528H137.352C136.725 80.6528 136.195 81.1804 136.195 81.8107V83.2681C136.195 83.8956 136.722 84.426 137.352 84.426H141.472V97.1004C141.472 97.7279 141.999 98.2583 142.629 98.2583H144.336ZM151.271 89.457C151.271 92.1978 152.152 94.411 153.91 96.0708C155.642 97.7307 157.879 98.5607 160.617 98.5607C163.304 98.5607 165.541 97.705 167.324 95.9967C169.082 94.2855 169.963 92.098 169.963 89.4599C169.963 86.7191 169.082 84.5059 167.35 82.846C165.592 81.1861 163.355 80.3562 160.617 80.3562C157.853 80.3562 155.616 81.2118 153.884 82.9458C152.149 84.6799 151.271 86.8674 151.271 89.457ZM155.542 89.457C155.542 87.8741 156.021 86.565 156.976 85.584C157.93 84.6029 159.135 84.1266 160.617 84.1266C162.05 84.1266 163.256 84.6285 164.236 85.6096C165.216 86.5907 165.692 87.8713 165.692 89.457C165.692 91.0171 165.239 92.2976 164.361 93.2787C163.481 94.2855 162.227 94.7874 160.617 94.7874C159.209 94.7874 158.004 94.2855 157.024 93.253C156.044 92.2235 155.542 90.9657 155.542 89.457ZM182.497 97.5282C182.825 98.0074 183.275 98.2583 183.879 98.2583H185.737C186.364 98.2583 186.842 97.7564 186.842 97.1774C186.842 96.9521 186.768 96.7496 186.617 96.55L182.748 91.3194C184.734 90.3383 185.711 88.6299 185.711 86.2399C185.711 82.7433 183.751 80.6072 179.203 80.6072C178.274 80.6072 176.667 80.6328 174.379 80.6585C173.752 80.6585 173.222 81.1861 173.222 81.8164V97.1061C173.222 97.7336 173.75 98.264 174.379 98.264H176.089C176.716 98.264 177.246 97.7364 177.246 97.1061V92.1008H178.727L182.497 97.5282ZM177.246 84.4289C178.351 84.4032 178.93 84.3776 179.004 84.3776C180.636 84.3776 181.44 85.005 181.44 86.2884C181.44 87.646 180.537 88.3248 178.702 88.3248H177.246V84.4289ZM200.71 95.643C200.71 95.0156 200.183 94.4851 199.553 94.4851H194.051V91.2909H198.547C199.174 91.2909 199.704 90.7632 199.704 90.1329V88.6756C199.704 88.0481 199.177 87.5176 198.547 87.5176H194.051V84.426H199.302C199.929 84.426 200.459 83.8984 200.459 83.2681V81.8107C200.459 81.1833 199.932 80.6528 199.302 80.6528H191.188C190.561 80.6528 190.031 81.1804 190.031 81.8107V97.1004C190.031 97.7279 190.558 98.2583 191.188 98.2583H199.553C200.18 98.2583 200.71 97.7307 200.71 97.1004V95.643Z" fill="#ED1C24"/>
<path fill-rule="evenodd" clip-rule="evenodd" d="M73.4587 107.818C73.4188 107.875 73.3932 107.958 73.3932 108.055C73.3932 108.178 73.4331 108.278 73.5157 108.343C74.0799 108.777 74.6526 108.999 75.251 108.999C75.8151 108.999 76.2824 108.842 76.6585 108.523C77.0261 108.203 77.2141 107.801 77.2141 107.311C77.2141 105.443 74.8236 105.671 74.8236 104.721C74.8236 104.459 75.0373 104.296 75.3963 104.296C75.6185 104.296 75.8379 104.345 76.0431 104.453C76.1172 104.493 76.1912 104.519 76.2653 104.519C76.4049 104.519 76.5104 104.453 76.593 104.322L76.8067 103.962C76.8409 103.905 76.8551 103.84 76.8551 103.766C76.8551 103.617 76.8067 103.512 76.6984 103.446C76.3052 103.192 75.8294 103.07 75.2823 103.07C74.7267 103.07 74.2736 103.232 73.9403 103.555C73.604 103.874 73.4331 104.268 73.4331 104.727C73.4331 105.414 73.8092 105.933 74.2765 106.201C74.9632 106.603 75.8237 106.866 75.8237 107.334C75.8237 107.605 75.6185 107.776 75.2823 107.776C74.9803 107.776 74.6355 107.644 74.2508 107.391C74.1768 107.334 74.0856 107.308 73.9973 107.308C73.8662 107.308 73.7693 107.365 73.6952 107.479L73.4587 107.818ZM88.5346 106.27C88.5346 107.254 88.2553 107.77 87.5031 107.77C86.7081 107.77 86.3149 107.245 86.3149 106.196V103.54C86.3149 103.335 86.144 103.164 85.9388 103.164H85.3832C85.178 103.164 85.0071 103.335 85.0071 103.54V106.475C85.0071 107.294 85.235 107.918 85.6881 108.352C86.1383 108.785 86.7452 108.999 87.5059 108.999C88.1784 108.999 88.734 108.794 89.1842 108.383C89.6259 107.972 89.8481 107.359 89.8481 106.529V103.538C89.8481 103.332 89.6771 103.161 89.472 103.161H88.9164C88.7112 103.161 88.5403 103.332 88.5403 103.538V106.27H88.5346ZM99.7524 103.147C99.4162 103.147 98.9574 103.155 98.3762 103.164C98.171 103.164 98.0001 103.344 98.0001 103.549V108.526C98.0001 108.731 98.171 108.902 98.3762 108.902H98.9318C99.1369 108.902 99.3079 108.731 99.3079 108.526V106.951C99.4475 106.969 99.6612 106.977 99.9461 106.977C100.584 106.977 101.1 106.789 101.485 106.412C101.869 106.044 102.066 105.585 102.066 105.052C102.066 104.502 101.887 104.042 101.516 103.683C101.151 103.327 100.562 103.147 99.7524 103.147ZM99.3079 104.393C99.6669 104.385 99.8578 104.376 99.8806 104.376C100.413 104.376 100.676 104.599 100.676 105.041C100.676 105.54 100.322 105.745 99.9063 105.745C99.7182 105.745 99.5131 105.728 99.3079 105.705V104.393ZM113.375 108.049C113.375 107.844 113.204 107.673 112.999 107.673H111.207V106.632H112.671C112.876 106.632 113.047 106.461 113.047 106.256V105.779C113.047 105.574 112.876 105.403 112.671 105.403H111.207V104.393H112.919C113.124 104.393 113.295 104.222 113.295 104.017V103.54C113.295 103.335 113.124 103.164 112.919 103.164H110.275C110.07 103.164 109.899 103.335 109.899 103.54V108.523C109.899 108.728 110.07 108.899 110.275 108.899H113.002C113.207 108.899 113.378 108.728 113.378 108.523V108.049H113.375ZM124.388 108.663C124.493 108.819 124.641 108.899 124.838 108.899H125.445C125.65 108.899 125.804 108.737 125.804 108.546C125.804 108.472 125.778 108.406 125.73 108.34L124.468 106.635C125.114 106.315 125.433 105.756 125.433 104.978C125.433 103.837 124.795 103.141 123.314 103.141C123.012 103.141 122.487 103.15 121.741 103.158C121.536 103.158 121.365 103.329 121.365 103.535V108.517C121.365 108.723 121.536 108.894 121.741 108.894H122.296C122.501 108.894 122.672 108.723 122.672 108.517V106.886H123.157L124.388 108.663ZM122.678 104.393C123.037 104.385 123.228 104.376 123.251 104.376C123.784 104.376 124.046 104.581 124.046 104.998C124.046 105.44 123.752 105.662 123.154 105.662H122.678V104.393ZM136.107 106.917C136.395 107.302 136.819 107.302 137.107 106.917L138.295 105.246V108.526C138.295 108.731 138.466 108.902 138.671 108.902H139.227C139.432 108.902 139.603 108.731 139.603 108.526V103.543C139.603 103.338 139.432 103.167 139.227 103.167H138.612C138.441 103.167 138.31 103.249 138.201 103.404L136.694 105.585L135.098 103.398C134.984 103.241 134.845 103.17 134.674 103.17H133.987C133.782 103.17 133.611 103.341 133.611 103.546V108.529C133.611 108.734 133.782 108.905 133.987 108.905H134.543C134.748 108.905 134.919 108.734 134.919 108.529V105.269L136.107 106.917ZM151.516 108.631C151.59 108.811 151.721 108.902 151.909 108.902H152.491C152.687 108.902 152.844 108.74 152.844 108.549C152.844 108.5 152.836 108.452 152.818 108.409L150.756 103.432C150.673 103.252 150.542 103.161 150.354 103.161H149.755C149.567 103.161 149.436 103.252 149.354 103.432L147.291 108.409C147.274 108.449 147.265 108.5 147.265 108.549C147.265 108.737 147.422 108.902 147.618 108.902H148.117C148.305 108.902 148.436 108.811 148.51 108.631L148.878 107.696H151.146L151.516 108.631ZM150.656 106.467H149.371L150.018 104.844L150.656 106.467ZM163.529 108.663C163.634 108.819 163.783 108.899 163.979 108.899H164.586C164.791 108.899 164.945 108.737 164.945 108.546C164.945 108.472 164.92 108.406 164.871 108.34L163.609 106.635C164.256 106.315 164.575 105.756 164.575 104.978C164.575 103.837 163.937 103.141 162.455 103.141C162.153 103.141 161.629 103.15 160.882 103.158C160.677 103.158 160.506 103.329 160.506 103.535V108.517C160.506 108.723 160.677 108.894 160.882 108.894H161.438C161.643 108.894 161.814 108.723 161.814 108.517V106.886H162.298L163.529 108.663ZM161.817 104.393C162.176 104.385 162.367 104.376 162.389 104.376C162.922 104.376 163.184 104.581 163.184 104.998C163.184 105.44 162.891 105.662 162.292 105.662H161.817V104.393ZM175.844 108.663C175.958 108.819 176.115 108.899 176.303 108.899H176.932C177.155 108.899 177.308 108.728 177.308 108.531C177.308 108.449 177.283 108.375 177.226 108.303L175.351 105.811L177.038 103.746C177.095 103.672 177.12 103.597 177.12 103.518C177.12 103.329 176.964 103.164 176.761 103.164H176.22C176.032 103.164 175.875 103.238 175.761 103.392L174.057 105.662V103.54C174.057 103.335 173.886 103.164 173.681 103.164H173.126C172.92 103.164 172.75 103.335 172.75 103.54V108.523C172.75 108.728 172.92 108.899 173.126 108.899H173.681C173.886 108.899 174.057 108.728 174.057 108.523V106.17L175.844 108.663ZM188.623 108.049C188.623 107.844 188.452 107.673 188.247 107.673H186.455V106.632H187.919C188.125 106.632 188.296 106.461 188.296 106.256V105.779C188.296 105.574 188.125 105.403 187.919 105.403H186.455V104.393H188.167C188.372 104.393 188.543 104.222 188.543 104.017V103.54C188.543 103.335 188.372 103.164 188.167 103.164H185.523C185.318 103.164 185.147 103.335 185.147 103.54V108.523C185.147 108.728 185.318 108.899 185.523 108.899H188.25C188.455 108.899 188.626 108.728 188.626 108.523V108.049H188.623ZM198.613 108.899C198.818 108.899 198.989 108.728 198.989 108.523V104.39H200.331C200.536 104.39 200.707 104.219 200.707 104.014V103.538C200.707 103.332 200.536 103.161 200.331 103.161H196.333C196.128 103.161 195.957 103.332 195.957 103.538V104.014C195.957 104.219 196.128 104.39 196.333 104.39H197.676V108.523C197.676 108.728 197.846 108.899 198.052 108.899H198.613Z" fill="#ED1C24"/>
<path fill-rule="evenodd" clip-rule="evenodd" d="M42.23 103.058H68.669C69.4583 103.058 70.1022 103.705 70.1022 104.492V107.567C70.1022 108.357 69.4554 109.001 68.669 109.001H42.23C41.4408 109.001 40.7968 108.354 40.7968 107.567V104.492C40.7968 103.705 41.4408 103.058 42.23 103.058Z" fill="#FFF200"/>
<path fill-rule="evenodd" clip-rule="evenodd" d="M45.4042 107.304L44.5665 105.987L45.4042 104.655H44.7346L44.2017 105.599L43.7117 104.655H43.0421L43.8142 105.984L43.0335 107.304H43.7088L44.1989 106.369L44.7289 107.304H45.4042ZM45.9056 103.836C45.7261 103.836 45.5894 103.979 45.5894 104.158C45.5894 104.341 45.729 104.484 45.9056 104.484C46.0851 104.484 46.2276 104.341 46.2276 104.158C46.2248 103.979 46.0851 103.836 45.9056 103.836ZM46.1763 104.655H45.6264V107.304H46.1763V104.655ZM46.6408 104.655V107.304H47.6124C48.1338 107.304 48.6211 107.053 48.6211 106.46V105.516C48.6211 104.917 48.1367 104.655 47.6124 104.655H46.6408ZM47.1878 106.751V105.208H47.6095C47.8489 105.208 48.0654 105.294 48.0654 105.516V106.46C48.0654 106.674 47.8489 106.751 47.6095 106.751H47.1878ZM49.5642 106.255L49.5044 105.741H49.5414L49.6696 106.104L50.0343 106.956H50.4446L50.8065 106.106L50.9347 105.736H50.9746L50.9062 106.249V107.304H51.4561V104.655H50.8806L50.2309 106.178L49.5898 104.655H49.0143V107.304H49.5642V106.255ZM52.9691 105.145C53.2256 105.157 53.4421 105.288 53.4649 105.505V105.713H51.8465V106.463C51.8465 107.053 52.3879 107.344 52.9293 107.344C53.4706 107.344 54.012 107.045 54.012 106.463V105.502C54.012 104.92 53.4735 104.62 52.9264 104.62C52.5788 104.62 52.1856 104.8 52.0089 105.188L52.4506 105.428C52.5019 105.328 52.5788 105.256 52.6757 105.211C52.764 105.165 52.858 105.142 52.9549 105.142H52.9691V105.145ZM52.3964 106.249H53.4678V106.466C53.4678 106.682 53.2028 106.799 52.935 106.799C52.6671 106.799 52.3964 106.691 52.3964 106.466V106.249ZM56.3029 105.208V104.655H54.2342V105.208H54.9922V107.304H55.5449V105.208H56.3029ZM56.867 103.836C56.6875 103.836 56.5508 103.979 56.5508 104.158C56.5508 104.341 56.6904 104.484 56.867 104.484C57.0437 104.484 57.189 104.341 57.189 104.158C57.1862 103.979 57.0437 103.836 56.867 103.836ZM57.1377 104.655H56.5878V107.304H57.1377V104.655ZM59.1551 106.811C58.9499 106.808 58.7191 106.711 58.5994 106.52L58.1834 106.837C58.4085 107.176 58.759 107.341 59.1009 107.341C59.5853 107.341 60.0583 107.068 60.1067 106.574V106.514C60.1067 106.383 60.0839 106.275 60.044 106.186C59.8987 105.873 59.5768 105.764 59.2263 105.696C58.9983 105.647 58.7704 105.616 58.7704 105.399V105.396C58.7818 105.214 58.9641 105.134 59.175 105.134C59.3517 105.134 59.4998 105.208 59.6166 105.385L60.0697 105.083C59.8446 104.749 59.5198 104.615 59.1778 104.615C58.7049 104.615 58.2433 104.877 58.2148 105.376V105.399C58.2148 105.536 58.2376 105.653 58.286 105.747C58.4285 106.049 58.7305 106.172 59.0525 106.218C59.2662 106.246 59.4371 106.28 59.5226 106.397C59.5483 106.432 59.5597 106.471 59.5597 106.52C59.5597 106.62 59.5198 106.691 59.4371 106.74C59.3631 106.785 59.2776 106.808 59.1807 106.808H59.1551V106.811ZM60.9929 105.194H62.2323V104.655H60.4401V107.304H62.2323V106.771H60.9929V106.246H62.1326V105.713H60.9929V105.194ZM63.9077 107.96C63.9875 107.741 63.9049 107.515 63.657 107.495L63.7368 107.327C64.036 107.279 64.318 107.102 64.509 106.788L64.036 106.523C63.9847 106.623 63.9077 106.7 63.8109 106.742C63.7168 106.788 63.6228 106.811 63.5316 106.811H63.5174C63.2866 106.811 63.0757 106.68 63.0757 106.463V105.499C63.0757 105.282 63.2923 105.142 63.5288 105.142H63.543C63.6399 105.142 63.7339 105.165 63.8223 105.211C63.9191 105.256 63.9932 105.328 64.0474 105.428L64.489 105.188C64.3095 104.8 63.9163 104.62 63.5715 104.62C63.0444 104.62 62.5344 104.92 62.5344 105.499V106.463C62.5344 106.968 62.9276 107.256 63.3664 107.327L63.2125 107.627C63.4519 107.627 63.5174 107.732 63.4889 107.809C63.4689 107.86 63.4291 107.892 63.3607 107.903H63.335C63.278 107.903 63.2125 107.877 63.1384 107.829L63.033 108.069C63.127 108.14 63.2211 108.188 63.3122 108.211C63.3692 108.223 63.4205 108.225 63.4689 108.225C63.506 108.225 63.5402 108.223 63.5744 108.217C63.7339 108.188 63.8593 108.091 63.9077 107.96ZM65.056 103.836C64.8765 103.836 64.7398 103.979 64.7398 104.158C64.7398 104.341 64.8794 104.484 65.056 104.484C65.2355 104.484 65.378 104.341 65.378 104.158C65.378 103.979 65.2355 103.836 65.056 103.836ZM65.3296 104.655H64.7796V107.304H65.3296V104.655ZM67.3155 106.009C67.3155 106.066 67.364 106.403 67.3953 106.571L67.3583 106.58L67.1702 106.101L66.3325 104.655H65.7912V107.304H66.3439V106.012L66.2727 105.559L66.3097 105.55L66.4693 105.91L67.2757 107.301H67.8626V104.652H67.3127V106.009H67.3155Z" fill="#ED1C24"/>
</svg>
