<svg width="402" height="874" viewBox="0 0 402 874" fill="none" xmlns="http://www.w3.org/2000/svg">
<g clip-path="url(#clip0_57_2997)">
<rect width="402" height="874" fill="white"/>
<g opacity="0.63">
<g opacity="0.8">
<path fill-rule="evenodd" clip-rule="evenodd" d="M341.672 286.967L341.496 286.225C338.858 278.757 333.328 268.835 329.735 260.971C325.896 252.548 322.318 244.178 319.131 235.221C313.182 218.494 306.94 194.459 307.197 174.157C301.348 174.518 284.651 184.144 280.024 187.027L283.603 155.815C262.956 160.123 251.894 163.88 228.262 163.612C209.391 163.389 188.193 160.912 170.081 157.211C154.004 219.885 150.377 267.214 146.808 332.274C145.282 360.046 140.829 375.897 139.623 391.842L163.897 378.244C187.459 366.513 219.017 353.033 243.158 342.517C267.367 331.956 308.172 311.443 329.934 295.148C333.657 292.377 337.819 288.882 341.672 286.967Z" fill="#D3D3D3"/>
<path fill-rule="evenodd" clip-rule="evenodd" d="M437.212 -40.3957L436.409 -39.9583C434.776 -24.4629 433.572 -16.2083 433.812 0.561612C434.053 15.7888 433.514 29.9111 432.747 45.0631C434.789 41.2307 435.709 34.4645 434.877 29.8353C436.244 88.1536 433.459 136.727 415.08 186.37C407.223 207.604 396.319 227.206 384.328 243.393C374.918 256.085 353.991 279.174 341.495 286.251L341.671 286.993C347.241 293.256 370.353 341.978 375.676 355.28L384.03 382.185C391.667 365.505 404.16 348.688 414.497 336.552C449.532 295.426 491.137 250.99 501.92 192.999C510.651 146.048 498.808 100.092 483.27 65.0348C475.604 47.7282 466.724 31.4226 457.542 15.707C450.265 3.20101 434.823 -21.5142 437.212 -40.3957Z" fill="#D7D7D7"/>
<path fill-rule="evenodd" clip-rule="evenodd" d="M368.853 -14.8975C376.736 -16.5119 391.975 -22.8185 400.756 -25.8807C411.199 -29.5167 423.977 -32.6477 431.016 -39.2601C410.55 -35.1538 389.641 -41.5601 369.724 -45.8193C348.693 -50.2949 328.023 -54.3456 305.922 -55.191C243.785 -57.6068 192.638 -35.4358 156.895 10.4593C123.501 53.3366 111.334 90.0573 86.8464 125.478C81.1203 133.74 76.0288 139.027 70.346 146.554C125.867 143.943 128.647 153.326 170.109 157.194C179.146 131.574 186.545 113.252 200.907 93.2652C216.596 71.4059 217.362 72.9939 233.442 55.8202C246.76 41.6062 284.387 18.6305 302.701 9.99489C313.873 4.6991 357.779 -14.5034 368.853 -14.8975Z" fill="#BABABA"/>
<path fill-rule="evenodd" clip-rule="evenodd" d="M283.627 155.84C288.106 91.1969 290.908 29.1076 347.923 -3.96947C353.326 -7.10621 365.061 -12.1325 368.85 -14.9013C357.776 -14.5073 313.87 4.69523 302.676 9.99038C284.362 18.649 246.735 41.6017 233.418 55.8157C217.338 72.9894 216.571 71.4014 200.882 93.2607C186.543 113.248 179.143 131.57 170.085 157.19C188.196 160.913 209.394 163.39 228.265 163.59C251.941 163.882 263.001 160.149 283.627 155.84Z" fill="#B7B7B7"/>
<path fill-rule="evenodd" clip-rule="evenodd" d="M432.741 45.0649C430.739 81.7106 412.3 109.109 388.517 130.021C373.225 143.464 327.533 166.759 307.206 172.873L307.212 174.186C306.956 194.464 313.198 218.499 319.146 235.25C322.333 244.207 325.911 252.576 329.751 261C333.343 268.863 338.873 278.786 341.511 286.253C354.007 279.177 374.933 256.11 384.344 243.395C396.335 227.209 407.217 207.605 415.096 186.373C433.475 136.73 436.26 88.156 434.893 29.8377C435.703 34.4663 434.783 41.2324 432.741 45.0649Z" fill="#D9D9D9"/>
<path fill-rule="evenodd" clip-rule="evenodd" d="M432.747 45.0675C433.492 29.9148 434.032 15.7925 433.813 0.565975C433.551 -16.2045 434.777 -24.4585 436.409 -39.954L398.984 7.20489C357.714 56.7627 306.772 102.219 307.213 172.853C327.562 166.739 373.232 143.443 388.524 130C412.306 109.111 430.745 81.7132 432.747 45.0675Z" fill="#D1D1D1"/>
<path fill-rule="evenodd" clip-rule="evenodd" d="M307.217 174.183L307.211 172.871C306.77 102.237 357.69 56.7571 398.981 7.22297L436.407 -39.936L437.21 -40.3733C437.33 -44.5375 437.456 -41.3102 436.299 -42.2877L431.03 -39.2163C423.97 -32.6274 411.214 -29.4958 400.77 -25.8368C391.989 -22.7746 376.75 -16.4679 368.867 -14.8534C365.099 -12.0839 353.343 -7.05844 347.94 -3.9217C290.925 29.1554 288.101 91.2212 283.644 155.888L280.065 187.1C284.649 184.17 301.368 174.544 307.217 174.183Z" fill="#C6C6C6"/>
</g>
<g opacity="0.8">
<path fill-rule="evenodd" clip-rule="evenodd" d="M55.0986 561.418L55.2636 562.163C57.7893 569.669 63.1702 579.674 66.6442 587.59C70.357 596.07 73.8088 604.492 76.8618 613.496C82.5588 630.311 88.44 654.437 87.8789 674.732C93.7327 674.459 110.572 665.084 115.241 662.271L111.195 693.426C131.905 689.428 143.021 685.838 166.647 686.46C185.512 686.965 206.671 689.76 224.725 693.731C241.74 631.306 246.076 584.037 250.619 519.037C252.562 491.291 257.251 475.509 258.697 459.583L234.222 472.816C210.487 484.192 178.73 497.198 154.433 507.352C130.069 517.548 88.9618 537.447 66.9579 553.415C63.1931 556.129 58.9795 559.561 55.0986 561.418Z" fill="#D3D3D3"/>
<path fill-rule="evenodd" clip-rule="evenodd" d="M-45.3373 887.312L-44.528 886.887C-42.6632 871.418 -41.3355 863.182 -41.3243 846.411C-41.3369 831.181 -40.5858 817.069 -39.5921 801.93C-41.6915 805.731 -42.7125 812.483 -41.9499 817.124C-42.4428 758.792 -38.9298 710.265 -19.8091 660.903C-11.6351 639.79 -0.438041 620.353 11.7943 604.348C21.3934 591.799 42.6637 569.025 55.2647 562.137L55.0996 561.392C49.6241 555.047 27.2455 505.983 22.1225 492.603L14.1723 465.576C6.28585 482.14 -6.45702 498.768 -16.9754 510.747C-52.6223 551.343 -94.8889 595.151 -106.54 652.974C-115.974 699.789 -104.821 745.918 -89.8101 781.203C-82.4046 798.623 -73.7701 815.06 -64.8244 830.911C-57.7351 843.525 -42.6656 868.469 -45.3373 887.312Z" fill="#D7D7D7"/>
<path fill-rule="evenodd" clip-rule="evenodd" d="M23.3963 862.842C15.4902 864.338 0.157569 870.415 -8.66797 873.345C-19.1647 876.824 -31.9877 879.764 -39.1254 886.27C-18.5999 882.471 2.21072 889.19 22.0621 893.747C43.0232 898.537 63.6299 902.897 85.716 904.074C147.809 907.421 199.283 886.019 235.71 840.665C269.744 798.292 282.46 761.758 307.475 726.709C313.324 718.533 318.494 713.323 324.289 705.882C268.735 707.661 266.096 698.237 224.697 693.748C215.277 719.23 207.604 737.439 192.944 757.208C176.93 778.83 176.187 777.231 159.851 794.161C146.323 808.174 108.355 830.583 89.9138 838.943C78.6638 844.071 34.4752 862.613 23.3963 862.842Z" fill="#BABABA"/>
<path fill-rule="evenodd" clip-rule="evenodd" d="M111.171 693.401C105.725 757.969 101.992 820.01 44.4871 852.228C39.0382 855.284 27.2294 860.134 23.3989 862.845C34.4777 862.617 78.6663 844.075 89.9382 838.948C108.381 830.565 146.347 808.179 159.876 794.166C176.212 777.235 176.954 778.835 192.969 757.213C207.607 737.443 215.28 719.234 224.721 693.753C206.668 689.758 185.51 686.964 166.644 686.481C142.975 685.834 131.859 689.401 111.171 693.401Z" fill="#B7B7B7"/>
<path fill-rule="evenodd" clip-rule="evenodd" d="M-39.5861 801.928C-37.0352 765.317 -18.1877 738.198 5.90607 717.645C21.3981 704.433 67.4343 681.824 87.8503 676.016L87.864 674.704C88.4241 654.431 82.5428 630.305 76.8468 613.467C73.7939 604.464 70.3421 596.041 66.6293 587.561C63.1553 579.645 57.7743 569.64 55.2487 562.134C42.6477 569.023 21.3784 591.773 11.7783 604.346C-0.454073 620.35 -11.6292 639.788 -19.825 660.901C-38.9458 710.263 -42.4589 758.789 -41.9659 817.122C-42.7066 812.481 -41.6856 805.73 -39.5861 801.928Z" fill="#D9D9D9"/>
<path fill-rule="evenodd" clip-rule="evenodd" d="M-39.5923 801.926C-40.5641 817.065 -41.3151 831.178 -41.3245 846.406C-41.3138 863.179 -42.6634 871.413 -44.5282 886.883L-6.40007 840.29C35.6083 791.356 87.2254 746.669 87.8431 676.036C67.4052 681.844 21.3909 704.453 5.89894 717.665C-18.1938 738.195 -37.0413 765.314 -39.5923 801.926Z" fill="#D1D1D1"/>
<path fill-rule="evenodd" clip-rule="evenodd" d="M87.8594 674.706L87.8457 676.018C87.228 746.651 35.6318 791.362 -6.3975 840.272L-44.5256 886.865L-45.335 887.29C-45.5176 891.452 -45.5955 888.223 -44.4532 889.218L-39.1389 886.226C-31.9803 879.743 -19.1792 876.803 -8.68145 873.301C0.144094 870.371 15.4768 864.293 23.3829 862.797C27.1915 860.085 39.0222 855.236 44.471 852.18C101.976 819.962 105.729 757.945 111.155 693.353L115.202 662.198C110.574 665.059 93.7133 674.433 87.8594 674.706Z" fill="#C6C6C6"/>
</g>
</g>
</g>
<defs>
<clipPath id="clip0_57_2997">
<rect width="402" height="874" fill="white"/>
</clipPath>
</defs>
</svg>
