<svg width="24" height="24" viewBox="0 0 24 24" fill="none" xmlns="http://www.w3.org/2000/svg">
<path d="M14.67 3.075C14.7963 3.01332 14.9373 2.98834 15.0771 3.00293C15.2168 3.01752 15.3497 3.07108 15.4605 3.1575L22.2105 8.4075C22.2975 8.47509 22.3686 8.56102 22.4186 8.65918C22.4687 8.75734 22.4965 8.86533 22.5 8.97545C22.5036 9.08557 22.4829 9.19513 22.4393 9.29634C22.3958 9.39754 22.3304 9.48791 22.248 9.561L15.498 15.561C15.3899 15.657 15.2564 15.7197 15.1135 15.7416C14.9705 15.7634 14.8244 15.7435 14.6925 15.6843C14.5606 15.625 14.4487 15.5289 14.3702 15.4075C14.2917 15.2861 14.25 15.1446 14.25 15V12.084C13.896 12.144 13.434 12.249 12.894 12.429C11.5845 12.867 9.813 13.7475 8.031 15.531C7.92197 15.6405 7.78179 15.7136 7.62964 15.7403C7.47748 15.7671 7.32078 15.7462 7.18093 15.6806C7.04108 15.6149 6.92492 15.5077 6.84833 15.3735C6.77173 15.2394 6.73844 15.0848 6.753 14.931C6.9675 12.5745 7.6545 10.8555 8.589 9.6165C9.39149 8.5475 10.4814 7.72868 11.7315 7.2555C12.5382 6.95053 13.3884 6.77633 14.25 6.7395V3.75C14.2497 3.60944 14.2889 3.47162 14.3632 3.35227C14.4375 3.23293 14.5438 3.13685 14.67 3.075ZM3 8.25C3 7.25544 3.39509 6.30161 4.09835 5.59835C4.80161 4.89509 5.75544 4.5 6.75 4.5H9.75C9.94891 4.5 10.1397 4.57902 10.2803 4.71967C10.421 4.86032 10.5 5.05109 10.5 5.25C10.5 5.44891 10.421 5.63968 10.2803 5.78033C10.1397 5.92098 9.94891 6 9.75 6H6.75C6.15326 6 5.58097 6.23705 5.15901 6.65901C4.73705 7.08097 4.5 7.65326 4.5 8.25V17.25C4.5 17.8467 4.73705 18.419 5.15901 18.841C5.58097 19.2629 6.15326 19.5 6.75 19.5H15.75C16.3467 19.5 16.919 19.2629 17.341 18.841C17.7629 18.419 18 17.8467 18 17.25V15.75C18 15.5511 18.079 15.3603 18.2197 15.2197C18.3603 15.079 18.5511 15 18.75 15C18.9489 15 19.1397 15.079 19.2803 15.2197C19.421 15.3603 19.5 15.5511 19.5 15.75V17.25C19.5 18.2446 19.1049 19.1984 18.4017 19.9017C17.6984 20.6049 16.7446 21 15.75 21H6.75C5.75544 21 4.80161 20.6049 4.09835 19.9017C3.39509 19.1984 3 18.2446 3 17.25V8.25Z" fill="#646464"/>
</svg>
